<?xml version="1.0" encoding="UTF-8" standalone="no"?>
<!DOCTYPE svg PUBLIC "-//W3C//DTD SVG 1.1//EN" "http://www.w3.org/Graphics/SVG/1.1/DTD/svg11.dtd">
<svg width="100%" height="100%" viewBox="0 0 300 300" version="1.1" xmlns="http://www.w3.org/2000/svg" xmlns:xlink="http://www.w3.org/1999/xlink" xml:space="preserve" xmlns:serif="http://www.serif.com/" style="fill-rule:evenodd;clip-rule:evenodd;stroke-linejoin:round;stroke-miterlimit:2;">
    <g transform="matrix(1,0,0,1,-370.643,0)">
        <g id="Prancheta1" transform="matrix(0.375,0,0,0.5,370.643,0)">
            <rect x="0" y="0" width="800" height="600" style="fill:none;"/>
            <clipPath id="_clip1">
                <rect x="0" y="0" width="800" height="600"/>
            </clipPath>
            <g clip-path="url(#_clip1)">
                <g id="path24" transform="matrix(20.0179,0,0,15.0134,1.11145e-12,3.51025e-13)">
                    <path d="M37.039,0L2.952,0C1.324,0 0,1.291 0,2.883L0,37.114C0,38.707 1.324,40 2.952,40L37.039,40C38.671,40 40,38.707 40,37.114L40,2.883C40,1.291 38.671,0 37.039,0" style="fill:rgb(255,112,53);fill-rule:nonzero;"/>
                </g>
                <g transform="matrix(13.9978,0,0,10.4984,-1214.57,-71.6695)">
                    <text x="93px" y="47px" style="font-family:'Arial-BoldMT', 'Arial', sans-serif;font-weight:700;font-size:44.673px;fill:white;">@</text>
                </g>
            </g>
        </g>
    </g>
</svg>
