<?xml version="1.0" encoding="UTF-8" standalone="no"?>
<!DOCTYPE svg PUBLIC "-//W3C//DTD SVG 1.1//EN" "http://www.w3.org/Graphics/SVG/1.1/DTD/svg11.dtd">
<svg width="100%" height="100%" viewBox="0 0 64 64" version="1.1" xmlns="http://www.w3.org/2000/svg" xmlns:xlink="http://www.w3.org/1999/xlink" xml:space="preserve" xmlns:serif="http://www.serif.com/" style="fill-rule:evenodd;clip-rule:evenodd;stroke-linejoin:round;stroke-miterlimit:2;">
    <g transform="matrix(1,0,0,1,-81,0)">
        <g transform="matrix(1,0,0,1,81,0)">
            <rect id="Prancheta1" x="0" y="0" width="64" height="64" style="fill:none;"/>
            <g id="Prancheta11" serif:id="Prancheta1">
                <g id="handshake-deal-svgrepo-com.svg" transform="matrix(0.122071,0,0,0.122071,32,32)">
                    <g transform="matrix(1,0,0,1,-255.999,-255.999)">
                        <clipPath id="_clip1">
                            <rect x="0" y="0" width="511.997" height="511.997"/>
                        </clipPath>
                        <g clip-path="url(#_clip1)">
                            <g>
                                <g>
                                    <path d="M505.899,211.567L368.7,74.369C360.824,66.467 347.051,66.467 339.175,74.369L276.25,137.268C268.186,145.392 268.186,158.618 276.284,166.793L293.334,183.646C282.292,182.767 266.787,188.484 265.345,188.391L226.262,176.282L235.717,166.827C239.668,162.876 241.852,157.628 241.852,152.056C241.852,146.458 239.667,141.21 235.725,137.285L172.834,74.36C164.924,66.484 151.219,66.484 143.309,74.386L6.135,211.542C2.185,215.493 0,220.749 0,226.347C0,231.919 2.185,237.176 6.127,241.101L69.001,304C72.935,307.951 78.191,310.127 83.764,310.127C89.337,310.127 94.576,307.951 98.535,304L102.853,299.682C113.989,323.004 151.399,370.423 177.486,396.527L211.79,430.831C222.303,441.327 232.261,443.554 238.781,443.554C247.084,443.554 254.883,440.132 261.335,433.681C267.65,427.358 269.433,421.205 269.834,416.759C277.395,418.534 288.744,417.706 295.63,410.811C301.945,404.513 303.728,398.335 304.129,393.889C311.69,395.664 323.039,394.862 329.925,387.967C336.24,381.644 338.023,375.491 338.416,371.045C346.028,372.717 357.343,371.967 364.212,365.097C370.049,359.252 376.406,348.807 371.79,334.258C381.603,325.102 398.167,314.427 414.525,304.699C418.348,308.087 423.092,310.118 428.238,310.118C433.836,310.118 439.084,307.942 443.001,303.991L505.892,241.117C514.031,232.943 514.031,219.717 505.899,211.567ZM83.772,282.573L27.563,226.347L158.071,95.796L214.28,152.022L83.772,282.573ZM347.034,346.539C346.121,346.539 344.372,346.112 342.819,345.737C340.191,345.114 337.221,344.389 333.91,344.389C327.237,344.389 322.885,347.342 320.402,349.816C314.599,355.619 313.976,361.839 313.601,365.569C313.336,368.197 313.311,368.342 312.765,369.418C311.852,369.418 310.103,368.991 308.55,368.616C305.922,367.968 302.952,367.268 299.624,367.268C292.925,367.268 288.565,370.221 286.099,372.695C280.296,378.498 279.673,384.718 279.298,388.422C279.033,391.05 279.008,391.195 278.445,392.271C277.532,392.271 275.774,391.844 274.221,391.469C271.61,390.846 268.649,390.146 265.321,390.146C258.622,390.146 254.262,393.099 251.821,395.548C245.993,401.351 245.37,407.571 244.994,411.301C244.729,413.929 244.704,414.074 243.219,415.576C240.855,417.948 239.285,417.948 238.773,417.948C236.435,417.948 233.201,416.045 229.881,412.726L195.577,378.422C166.316,349.144 133.062,302.475 120.228,282.294L205.937,196.585L224.847,201.918C209.035,213.993 196.482,231.29 186.345,243.851C182.983,248.024 180.32,251.377 178.443,253.255C170.439,261.259 167.99,269.63 171.164,278.181C173.502,284.53 178.605,289.633 185.065,296.084C190.816,301.835 198.061,304.882 206.031,304.882C222.347,304.882 237.971,292.509 253.084,280.528C256.395,277.908 266.345,271.175 272.591,266.986C297.141,289.335 320.821,311.231 337.521,327.923C351.352,341.718 347.674,345.396 347.034,346.539ZM357.914,312.44C357.086,311.535 356.54,310.725 355.636,309.82C333.74,287.923 305.17,264.482 287.6,247.646C282.207,242.475 272.479,244.028 264.91,246.357C256.069,247.859 247.792,252.057 237.202,260.446C227.175,268.399 213.454,279.271 206.038,279.271C205.04,279.271 199.237,275.149 198.136,274.049C196.011,271.924 202.249,264.927 206.277,259.926C220.323,242.527 239.002,222.925 263.467,213.522C284.271,205.518 298.727,208.965 317.867,209.255L395.648,286.157C381.628,294.665 368.145,303.693 357.914,312.44ZM428.245,282.514L297.711,152.014L353.937,95.813L484.463,226.313L428.245,282.514Z" style="fill:rgb(255,112,53);fill-rule:nonzero;stroke:rgb(255,112,53);stroke-width:1px;"/>
                                </g>
                            </g>
                        </g>
                    </g>
                </g>
            </g>
        </g>
    </g>
</svg>
