<?xml version="1.0" encoding="UTF-8" standalone="no"?>
<!DOCTYPE svg PUBLIC "-//W3C//DTD SVG 1.1//EN" "http://www.w3.org/Graphics/SVG/1.1/DTD/svg11.dtd">
<svg width="100%" height="100%" viewBox="0 0 300 300" version="1.1" xmlns="http://www.w3.org/2000/svg" xmlns:xlink="http://www.w3.org/1999/xlink" xml:space="preserve" xmlns:serif="http://www.serif.com/" style="fill-rule:evenodd;clip-rule:evenodd;stroke-linejoin:round;stroke-miterlimit:2;">
    <g id="Prancheta1" transform="matrix(0.375,0,0,0.5,0,0)">
        <rect x="0" y="0" width="800" height="600" style="fill:none;"/>
        <clipPath id="_clip1">
            <rect x="0" y="0" width="800" height="600"/>
        </clipPath>
        <g clip-path="url(#_clip1)">
            <g id="linkedin.svg" transform="matrix(20,0,0,15,400,300)">
                <g transform="matrix(1,0,0,1,-20,-20)">
                    <path id="path24" d="M37.039,0L2.952,0C1.324,0 0,1.291 0,2.883L0,37.114C0,38.707 1.324,40 2.952,40L37.039,40C38.671,40 40,38.707 40,37.114L40,2.883C40,1.291 38.671,0 37.039,0" style="fill:rgb(255,112,53);fill-rule:nonzero;"/>
                    <path id="path26" d="M8.898,5.507C10.795,5.507 12.336,7.049 12.336,8.946C12.336,10.845 10.795,12.387 8.898,12.387C6.997,12.387 5.458,10.845 5.458,8.946C5.458,7.049 6.997,5.507 8.898,5.507M5.93,14.996L11.863,14.996L11.863,34.085L5.93,34.085L5.93,14.996" style="fill:white;fill-rule:nonzero;"/>
                    <path id="path28" d="M15.584,14.996L21.276,14.996L21.276,17.604L21.354,17.604C22.146,16.104 24.081,14.521 26.968,14.521C32.975,14.521 34.085,18.475 34.085,23.614L34.085,34.085L28.156,34.085L28.156,24.802C28.156,22.588 28.115,19.74 25.073,19.74C21.986,19.74 21.513,22.152 21.513,24.642L21.513,34.085L15.584,34.085L15.584,14.996" style="fill:white;fill-rule:nonzero;"/>
                </g>
            </g>
        </g>
    </g>
</svg>
