<?xml version="1.0" encoding="UTF-8" standalone="no"?>
<!DOCTYPE svg PUBLIC "-//W3C//DTD SVG 1.1//EN" "http://www.w3.org/Graphics/SVG/1.1/DTD/svg11.dtd">
<svg width="100%" height="100%" viewBox="0 0 64 64" version="1.1" xmlns="http://www.w3.org/2000/svg" xmlns:xlink="http://www.w3.org/1999/xlink" xml:space="preserve" xmlns:serif="http://www.serif.com/" style="fill-rule:evenodd;clip-rule:evenodd;stroke-linecap:round;stroke-linejoin:round;stroke-miterlimit:1.5;">
    <rect id="Prancheta1" x="0" y="0" width="64" height="64" style="fill:none;"/>
    <g id="Prancheta11" serif:id="Prancheta1">
        <g transform="matrix(1,0,0,1,19,-7.52756)">
            <path d="M21,24.732C21,24.452 20.852,24.192 20.612,24.047C20.371,23.903 20.072,23.895 19.824,24.027C19.288,24.339 18.663,24.5 18,24.5C15.792,24.5 14,22.708 14,20.5C14,18.292 15.792,16.5 18,16.5C18.663,16.5 19.288,16.661 19.838,16.947C20.077,17.074 20.365,17.067 20.596,16.928C20.828,16.788 20.97,16.538 20.97,16.268C21,13.973 21,10 21,10L27.268,10C27.548,10 27.808,10.148 27.953,10.388C28.097,10.629 28.105,10.928 27.973,11.176C27.661,11.712 27.5,12.337 27.5,13C27.5,15.208 29.292,17 31.5,17C33.708,17 35.5,15.208 35.5,13C35.5,12.337 35.339,11.712 35.053,11.162C34.926,10.923 34.933,10.635 35.072,10.404C35.212,10.172 35.462,10.03 35.732,10.03C38.027,10 42,10 42,10L42,16.268C42,16.548 41.852,16.808 41.612,16.953C41.371,17.097 41.072,17.105 40.824,16.973C40.288,16.661 39.663,16.5 39,16.5C36.792,16.5 35,18.292 35,20.5C35,22.708 36.792,24.5 39,24.5C39.663,24.5 40.288,24.339 40.838,24.053C41.077,23.926 41.365,23.933 41.596,24.072C41.828,24.212 41.97,24.462 41.97,24.732C42,27.027 42,31 42,31L35.732,31C35.452,31 35.192,31.148 35.047,31.388C34.903,31.629 34.895,31.928 35.027,32.176C35.339,32.712 35.5,33.337 35.5,34C35.5,36.208 33.708,38 31.5,38C29.292,38 27.5,36.208 27.5,34C27.5,33.337 27.661,32.712 27.947,32.162C28.074,31.923 28.067,31.635 27.928,31.404C27.788,31.172 27.538,31.03 27.268,31.03C24.973,31 21,31 21,31L21,24.732Z" style="fill:rgb(255,112,53);stroke:white;stroke-width:1px;"/>
        </g>
        <g transform="matrix(1,0,0,1,9,24.5)">
            <path d="M21,24.732C21,24.452 20.852,24.192 20.612,24.047C20.371,23.903 20.072,23.895 19.824,24.027C19.288,24.339 18.663,24.5 18,24.5C15.792,24.5 14,22.708 14,20.5C14,18.292 15.792,16.5 18,16.5C18.663,16.5 19.288,16.661 19.838,16.947C20.077,17.074 20.365,17.067 20.596,16.928C20.828,16.788 20.97,16.538 20.97,16.268C21,13.973 21,10 21,10L27.268,10C27.548,10 27.808,10.148 27.953,10.388C28.097,10.629 28.105,10.928 27.973,11.176C27.661,11.712 27.5,12.337 27.5,13C27.5,15.208 29.292,17 31.5,17C33.708,17 35.5,15.208 35.5,13C35.5,12.337 35.339,11.712 35.053,11.162C34.926,10.923 34.933,10.635 35.072,10.404C35.212,10.172 35.462,10.03 35.732,10.03C38.027,10 42,10 42,10L42,16.268C42,16.548 41.852,16.808 41.612,16.953C41.371,17.097 41.072,17.105 40.824,16.973C40.288,16.661 39.663,16.5 39,16.5C36.792,16.5 35,18.292 35,20.5C35,22.708 36.792,24.5 39,24.5C39.663,24.5 40.288,24.339 40.838,24.053C41.077,23.926 41.365,23.933 41.596,24.072C41.828,24.212 41.97,24.462 41.97,24.732C42,27.027 42,31 42,31L35.732,31C35.452,31 35.192,31.148 35.047,31.388C34.903,31.629 34.895,31.928 35.027,32.176C35.339,32.712 35.5,33.337 35.5,34C35.5,36.208 33.708,38 31.5,38C29.292,38 27.5,36.208 27.5,34C27.5,33.337 27.661,32.712 27.947,32.162C28.074,31.923 28.067,31.635 27.928,31.404C27.788,31.172 27.538,31.03 27.268,31.03C24.973,31 21,31 21,31L21,24.732Z" style="fill:rgb(255,112,53);stroke:white;stroke-width:1px;"/>
        </g>
        <g transform="matrix(-3.06162e-16,-1,-1,3.06162e-16,40,55.5)">
            <path d="M21,24.732C21,24.452 20.852,24.192 20.612,24.047C20.371,23.903 20.072,23.895 19.824,24.027C19.288,24.339 18.663,24.5 18,24.5C15.792,24.5 14,22.708 14,20.5C14,18.292 15.792,16.5 18,16.5C18.663,16.5 19.288,16.661 19.838,16.947C20.077,17.074 20.365,17.067 20.596,16.928C20.828,16.788 20.97,16.538 20.97,16.268C21,13.973 21,10 21,10L27.268,10C27.548,10 27.808,10.148 27.953,10.388C28.097,10.629 28.105,10.928 27.973,11.176C27.661,11.712 27.5,12.337 27.5,13C27.5,15.208 29.292,17 31.5,17C33.708,17 35.5,15.208 35.5,13C35.5,12.337 35.339,11.712 35.053,11.162C34.926,10.923 34.933,10.635 35.072,10.404C35.212,10.172 35.462,10.03 35.732,10.03C38.027,10 42,10 42,10L42,16.268C42,16.548 41.852,16.808 41.612,16.953C41.371,17.097 41.072,17.105 40.824,16.973C40.288,16.661 39.663,16.5 39,16.5C36.792,16.5 35,18.292 35,20.5C35,22.708 36.792,24.5 39,24.5C39.663,24.5 40.288,24.339 40.838,24.053C41.077,23.926 41.365,23.933 41.596,24.072C41.828,24.212 41.97,24.462 41.97,24.732C42,27.027 42,31 42,31L35.732,31C35.452,31 35.192,31.148 35.047,31.388C34.903,31.629 34.895,31.928 35.027,32.176C35.339,32.712 35.5,33.337 35.5,34C35.5,36.208 33.708,38 31.5,38C29.292,38 27.5,36.208 27.5,34C27.5,33.337 27.661,32.712 27.947,32.162C28.074,31.923 28.067,31.635 27.928,31.404C27.788,31.172 27.538,31.03 27.268,31.03C24.973,31 21,31 21,31L21,24.732Z" style="fill:rgb(255,112,53);stroke:white;stroke-width:1px;"/>
        </g>
        <g transform="matrix(-3.06162e-16,-1,-1,3.06162e-16,40,76.5)">
            <path d="M21,24.732C21,24.452 20.852,24.192 20.612,24.047C20.371,23.903 20.072,23.895 19.824,24.027C19.288,24.339 18.663,24.5 18,24.5C15.792,24.5 14,22.708 14,20.5C14,18.292 15.792,16.5 18,16.5C18.663,16.5 19.288,16.661 19.838,16.947C20.077,17.074 20.365,17.067 20.596,16.928C20.828,16.788 20.97,16.538 20.97,16.268C21,13.973 21,10 21,10L27.268,10C27.548,10 27.808,10.148 27.953,10.388C28.097,10.629 28.105,10.928 27.973,11.176C27.661,11.712 27.5,12.337 27.5,13C27.5,15.208 29.292,17 31.5,17C33.708,17 35.5,15.208 35.5,13C35.5,12.337 35.339,11.712 35.053,11.162C34.926,10.923 34.933,10.635 35.072,10.404C35.212,10.172 35.462,10.03 35.732,10.03C38.027,10 42,10 42,10L42,16.268C42,16.548 41.852,16.808 41.612,16.953C41.371,17.097 41.072,17.105 40.824,16.973C40.288,16.661 39.663,16.5 39,16.5C36.792,16.5 35,18.292 35,20.5C35,22.708 36.792,24.5 39,24.5C39.663,24.5 40.288,24.339 40.838,24.053C41.077,23.926 41.365,23.933 41.596,24.072C41.828,24.212 41.97,24.462 41.97,24.732C42,27.027 42,31 42,31L35.732,31C35.452,31 35.192,31.148 35.047,31.388C34.903,31.629 34.895,31.928 35.027,32.176C35.339,32.712 35.5,33.337 35.5,34C35.5,36.208 33.708,38 31.5,38C29.292,38 27.5,36.208 27.5,34C27.5,33.337 27.661,32.712 27.947,32.162C28.074,31.923 28.067,31.635 27.928,31.404C27.788,31.172 27.538,31.03 27.268,31.03C24.973,31 21,31 21,31L21,24.732Z" style="fill:rgb(255,112,53);stroke:white;stroke-width:1px;"/>
        </g>
    </g>
</svg>
