<?xml version="1.0" encoding="UTF-8" standalone="no"?><!DOCTYPE svg PUBLIC "-//W3C//DTD SVG 1.1//EN" "http://www.w3.org/Graphics/SVG/1.1/DTD/svg11.dtd"><svg width="100%" height="100%" viewBox="0 0 1213 225" version="1.1" xmlns="http://www.w3.org/2000/svg" xmlns:xlink="http://www.w3.org/1999/xlink" xml:space="preserve" xmlns:serif="http://www.serif.com/" style="fill-rule:evenodd;clip-rule:evenodd;stroke-linecap:round;stroke-linejoin:round;stroke-miterlimit:1.5;"><g><g id="Prancheta1"><rect x="0" y="0" width="1212.5" height="221.306" style="fill:none;"/><g><g transform="matrix(1,0,0,1,7.2005e-05,0)"><text x="256.383px" y="214.3px" style="font-family:'Arial-BoldMT', 'Arial', sans-serif;font-weight:700;font-size:269.067px;fill:#fff;">T3</text></g><g><g transform="matrix(1,0,0,1,0.00018126,0)"><text x="645.4px" y="214.3px" style="font-family:'Arial-BoldMT', 'Arial', sans-serif;font-weight:700;font-size:269.067px;fill:#fff;">l</text></g><g transform="matrix(1,0,0,1,0.000205295,0)"><text x="730.979px" y="214.3px" style="font-family:'Arial-BoldMT', 'Arial', sans-serif;font-weight:700;font-size:269.067px;fill:#fff;">abs</text></g></g></g><g><path d="M74.024,34.45l50.735,83.713" style="fill:none;stroke:#fff;stroke-width:20.83px;"/></g><g><path d="M241.379,123.55c1.536,-2.634 1.548,-5.885 0.03,-8.527c-1.518,-2.642 -4.334,-4.272 -7.381,-4.272l-108.031,-0c-3.028,-0 -5.827,1.609 -7.351,4.222c-8.725,14.957 -38.389,65.811 -52.417,89.859c-1.537,2.633 -1.548,5.884 -0.03,8.526c1.518,2.643 4.334,4.272 7.381,4.272l108.03,0c3.029,0 5.827,-1.609 7.351,-4.221c8.725,-14.957 38.39,-65.811 52.418,-89.859Z" style="fill:#fff;"/></g><g><path d="M74.024,206.948l-48.198,-88.785l48.198,-83.713l104.006,0l53.271,83.713" style="fill:none;stroke:#fff;stroke-width:20.83px;"/></g></g></g></svg>