<?xml version="1.0" encoding="UTF-8" standalone="no"?>
<!DOCTYPE svg PUBLIC "-//W3C//DTD SVG 1.1//EN" "http://www.w3.org/Graphics/SVG/1.1/DTD/svg11.dtd">
<svg width="100%" height="100%" viewBox="0 0 300 300" version="1.1" xmlns="http://www.w3.org/2000/svg" xmlns:xlink="http://www.w3.org/1999/xlink" xml:space="preserve" xmlns:serif="http://www.serif.com/" style="fill-rule:evenodd;clip-rule:evenodd;stroke-linejoin:round;stroke-miterlimit:2;">
    <g id="Prancheta1" transform="matrix(0.375,0,0,0.5,0,5.68434e-14)">
        <rect x="0" y="0" width="800" height="600" style="fill:none;"/>
        <clipPath id="_clip1">
            <rect x="0" y="0" width="800" height="600"/>
        </clipPath>
        <g clip-path="url(#_clip1)">
            <g transform="matrix(1.37874e-16,0.754987,1.97062,-2.13393e-17,-295.858,185.619)">
                <rect x="138" y="150.134" width="27" height="176.866" style="fill:rgb(255,112,53);"/>
            </g>
            <g transform="matrix(1.37874e-16,0.754987,1.97062,-2.13393e-17,155.606,185.619)">
                <rect x="138" y="150.134" width="27" height="176.866" style="fill:rgb(255,112,53);"/>
            </g>
            <g transform="matrix(-1.00665,1.49635e-16,1.49118e-16,1.47797,552.507,-221.893)">
                <rect x="138" y="150.134" width="27" height="176.866" style="fill:rgb(255,112,53);"/>
            </g>
            <g transform="matrix(-1.00665,1.49635e-16,1.49118e-16,1.47797,552.507,116.705)">
                <rect x="138" y="150.134" width="27" height="176.866" style="fill:rgb(255,112,53);"/>
            </g>
            <g transform="matrix(2.66667,0,0,2,0,-1.13687e-13)">
                <path d="M39.326,158.634C44.426,212.227 87.626,254.775 141.5,258.856L141.5,278.728C76.673,274.567 24.615,223.166 19.426,158.634L39.326,158.634ZM280.574,158.634C275.381,223.167 223.329,274.563 158.5,278.728L158.5,258.856C212.377,254.775 255.58,212.222 260.674,158.634L280.574,158.634ZM65.793,158.634C70.686,197.69 102.159,228.53 141.5,232.446L141.5,247.643C93.792,243.617 55.578,206.044 50.56,158.634L65.793,158.634ZM249.44,158.634C244.417,206.049 206.204,243.619 158.5,247.643L158.5,232.446C197.842,228.53 229.315,197.69 234.207,158.634L249.44,158.634ZM93.27,158.634C97.753,182.672 117.162,201.489 141.5,205.087L141.5,215.473C111.475,211.722 87.506,188.364 82.828,158.634L93.27,158.634ZM217.172,158.634C212.494,188.363 188.526,211.721 158.5,215.473L158.5,205.087C182.839,201.486 202.246,182.671 206.73,158.634L217.172,158.634ZM141.5,122.367L141.5,134.701L158.5,134.701L158.5,122.367C167.268,125.277 174.049,132.565 176.244,141.634L165.433,141.634L165.433,158.634L174.822,158.634C171.793,165.688 165.844,171.196 158.5,173.633L158.5,165.567L141.5,165.567L141.5,173.633C134.156,171.196 128.206,165.688 125.178,158.634L134.567,158.634L134.567,141.634L123.756,141.634C125.951,132.565 132.731,125.277 141.5,122.367ZM141.5,17.272L141.5,37.144C86.2,41.333 42.145,86.053 39.003,141.634L19.152,141.634C22.34,75.109 75.253,21.524 141.5,17.272ZM141.5,48.357L141.5,63.554C100.735,67.612 68.419,100.576 65.368,141.634L50.2,141.634C53.306,92.228 92.368,52.504 141.5,48.357ZM158.5,80.527C189.95,84.456 214.755,109.897 217.705,141.634L207.362,141.634C204.5,115.581 184.261,94.721 158.5,90.913L158.5,80.527ZM141.5,80.527L141.5,90.913C115.739,94.724 95.503,115.58 92.638,141.634L82.295,141.634C85.248,109.893 110.055,84.453 141.5,80.527ZM158.5,48.357C207.627,52.502 246.687,92.221 249.8,141.634L234.632,141.634C231.583,100.58 199.27,67.617 158.5,63.554L158.5,48.357ZM158.5,17.272C224.748,21.524 277.662,75.111 280.848,141.634L260.997,141.634C257.855,86.054 213.802,41.334 158.5,37.144L158.5,17.272Z" style="fill:rgb(255,112,53);"/>
            </g>
        </g>
    </g>
</svg>
