<?xml version="1.0" encoding="UTF-8" standalone="no"?>
<!DOCTYPE svg PUBLIC "-//W3C//DTD SVG 1.1//EN" "http://www.w3.org/Graphics/SVG/1.1/DTD/svg11.dtd">
<svg width="100%" height="100%" viewBox="0 0 300 300" version="1.1" xmlns="http://www.w3.org/2000/svg" xmlns:xlink="http://www.w3.org/1999/xlink" xml:space="preserve" xmlns:serif="http://www.serif.com/" style="fill-rule:evenodd;clip-rule:evenodd;stroke-linejoin:round;stroke-miterlimit:2;">
    <g transform="matrix(1,0,0,1,-1111.93,0)">
        <g id="Prancheta1" transform="matrix(0.375,0,0,0.5,1111.93,0)">
            <rect x="0" y="0" width="800" height="600" style="fill:none;"/>
            <clipPath id="_clip1">
                <rect x="0" y="0" width="800" height="600"/>
            </clipPath>
            <g clip-path="url(#_clip1)">
                <g id="path24" transform="matrix(20.0179,0,0,15.0134,4.54747e-13,3.35405e-13)">
                    <path d="M37.039,0L2.952,0C1.324,0 0,1.291 0,2.883L0,37.114C0,38.707 1.324,40 2.952,40L37.039,40C38.671,40 40,38.707 40,37.114L40,2.883C40,1.291 38.671,0 37.039,0" style="fill:rgb(255,112,53);fill-rule:nonzero;"/>
                </g>
                <g id="_1332800.svg" serif:id="1332800.svg" transform="matrix(0.625559,0,0,0.469169,400.357,300.268)">
                    <g transform="matrix(1,0,0,1,-640,-640)">
                        <g transform="matrix(0.076424,0,0,-0.076424,153.641,1114.83)">
                            <path d="M6090,9914C4923,9891 3430,9734 2395,9524C2006,9445 1546,9319 1431,9260C1206,9146 1050,8813 986,8315C961,8121 949,7874 960,7802C979,7688 1059,7316 1074,7272C1140,7087 1358,6961 1562,6990C1616,6998 2913,7241 3531,7358C3738,7398 3781,7412 3868,7472C3928,7514 3996,7609 4020,7687C4051,7788 4046,7855 3984,8163C3954,8317 3931,8444 3933,8446C3941,8454 4491,8522 4497,8516C4502,8512 4460,7864 4444,7702L4438,7639L4366,7603C4245,7542 3781,7287 3522,7138C2290,6433 1545,5888 1373,5566L1335,5495L1332,4003L1330,2510L11400,2510L11398,3998L11395,5485L11366,5542C11223,5825 10650,6267 9630,6883C9349,7053 8881,7321 8553,7499C8306,7634 8290,7644 8285,7674C8275,7739 8227,8510 8233,8516C8238,8522 8789,8454 8796,8447C8798,8445 8780,8343 8755,8219C8681,7855 8679,7836 8691,7761C8716,7600 8823,7466 8971,7410C9058,7377 11140,6988 11230,6988C11403,6988 11560,7083 11637,7234C11654,7267 11681,7373 11717,7544L11772,7805L11766,7985C11747,8612 11586,9080 11333,9240C11242,9298 10826,9420 10430,9504C9230,9760 7344,9938 6090,9914ZM6880,8640C7075,8630 7513,8601 7517,8597C7519,8594 7449,7756 7445,7743C7441,7733 7216,7730 6360,7730C5338,7730 5280,7731 5280,7748C5280,7757 5266,7951 5249,8178C5231,8405 5219,8592 5221,8594C5231,8603 5799,8642 6100,8654C6223,8659 6643,8651 6880,8640ZM6590,6319C7052,6257 7477,5970 7677,5585C7773,5399 7814,5226 7813,5015C7812,4813 7773,4647 7683,4471C7496,4104 7126,3835 6676,3738C6590,3719 6543,3716 6365,3716C6184,3716 6141,3719 6050,3738C5468,3864 5046,4262 4933,4790C4909,4906 4909,5142 4934,5260C4997,5553 5171,5826 5415,6014C5520,6096 5576,6130 5690,6184C5970,6316 6270,6361 6590,6319Z" style="fill:white;fill-rule:nonzero;"/>
                        </g>
                    </g>
                </g>
            </g>
        </g>
    </g>
</svg>
