<?xml version="1.0" encoding="UTF-8" standalone="no"?>
<!DOCTYPE svg PUBLIC "-//W3C//DTD SVG 1.1//EN" "http://www.w3.org/Graphics/SVG/1.1/DTD/svg11.dtd">
<svg width="100%" height="100%" viewBox="0 0 300 300" version="1.1" xmlns="http://www.w3.org/2000/svg" xmlns:xlink="http://www.w3.org/1999/xlink" xml:space="preserve" xmlns:serif="http://www.serif.com/" style="fill-rule:evenodd;clip-rule:evenodd;stroke-linejoin:round;stroke-miterlimit:2;">
    <g transform="matrix(1,0,0,1,-769.437,0)">
        <g id="Prancheta1" transform="matrix(0.375,0,0,0.5,769.437,0)">
            <rect x="0" y="0" width="800" height="600" style="fill:none;"/>
            <clipPath id="_clip1">
                <rect x="0" y="0" width="800" height="600"/>
            </clipPath>
            <g clip-path="url(#_clip1)">
                <g id="e0070f4adceee3ac92c8eb8b95ad84a7.svg" transform="matrix(0.800715,0,0,0.600536,400.357,300.268)">
                    <g transform="matrix(1,0,0,1,-500,-500)">
                        <clipPath id="_clip2">
                            <rect x="0" y="0" width="1000" height="1000"/>
                        </clipPath>
                        <g clip-path="url(#_clip2)">
                            <g>
                                <g>
                                    <g id="path24" transform="matrix(25,0,0,25,0,1.67702e-13)">
                                        <path d="M37.039,0L2.952,0C1.324,0 0,1.291 0,2.883L0,37.114C0,38.707 1.324,40 2.952,40L37.039,40C38.671,40 40,38.707 40,37.114L40,2.883C40,1.291 38.671,0 37.039,0" style="fill:rgb(255,112,53);fill-rule:nonzero;"/>
                                    </g>
                                    <g id="WhatsApp" transform="matrix(0.94898,0,0,0.94898,32.5102,25.5102)">
                                        <path d="M990,487.4C990,751.1 774.6,964.8 508.9,964.8C424.5,964.8 345.3,943.2 276.3,905.4L10,990L96.8,733.9C53,662 27.8,577.6 27.8,487.4C27.8,223.7 243.2,10 508.9,10C774.6,10 990,223.7 990,487.4ZM508.9,86C285.9,86 104.4,266 104.4,487.4C104.4,575.2 133,656.6 181.5,722.7L131,871.8L286.4,822.4C350.3,864.3 426.8,888.8 508.9,888.8C731.9,888.8 913.4,708.8 913.4,487.5C913.4,266.1 731.9,86 508.9,86ZM751.8,597.3C748.8,592.4 741,589.5 729.2,583.6C717.4,577.8 659.4,549.4 648.6,545.6C637.8,541.7 629.9,539.7 622.1,551.4C614.3,563.1 591.6,589.4 584.8,597.3C577.9,605.1 571,606.1 559.2,600.3C547.4,594.5 509.4,582.1 464.4,542.2C429.4,511.2 405.7,472.9 398.8,461.2C391.9,449.5 398.1,443.2 404,437.3C409.3,432.1 415.8,423.6 421.7,416.8C427.6,410 429.6,405.1 433.5,397.3C437.5,389.5 435.5,382.7 432.5,376.8C429.6,371 406,313.4 396.1,289.9C386.3,266.5 376.5,270.4 369.6,270.4C362.7,270.4 354.9,269.4 347,269.4C339.1,269.4 326.4,272.3 315.5,284C304.7,295.7 274.2,324 274.2,381.6C274.2,439.2 316.4,494.8 322.3,502.6C328.2,510.4 403.9,632.4 523.7,679.2C643.6,726 643.6,710.4 665.2,708.5C686.8,706.5 735,680.2 744.8,652.9C754.8,625.6 754.8,602.2 751.8,597.3Z" style="fill:white;fill-rule:nonzero;"/>
                                    </g>
                                </g>
                            </g>
                        </g>
                    </g>
                </g>
            </g>
        </g>
    </g>
</svg>
